<svg aria-labelledby="simpleicons-gratipay-icon" enable-background="new 0 0 24 24" height="3.33333in" role="img" style="shape-rendering:geometricPrecision; text-rendering:geometricPrecision; image-rendering:optimizeQuality; fill-rule:evenodd; clip-rule:evenodd" version="1.1" viewBox="0 0 3333 3333" width="3.33333in" xml:space="preserve" xmlns="http://www.w3.org/2000/svg" xmlns:xlink="http://www.w3.org/1999/xlink"><defs><style type="text/css">
   <![CDATA[
    .fil0 {fill:black}
    .fil1 {fill:white}
   ]]>
  </style></defs><g id="Layer_x0020_1"><circle class="fil0" cx="1667" cy="1667" r="1667"/><g id="_817910192"><path class="fil1" d="M1628 608c-122,16 -204,42 -297,114 -41,32 -69,61 -101,103 -29,37 -56,87 -74,132 -72,188 -33,377 81,534 50,68 157,147 236,174 79,27 143,40 235,35 386,-24 628,-444 446,-799 -17,-33 -34,-56 -54,-83 -101,-138 -306,-232 -472,-210zm2 323c-128,26 -205,138 -186,259 18,111 126,212 263,188 199,-35 251,-288 101,-402 -42,-32 -110,-59 -178,-45z"/><path class="fil1" d="M1388 2659c24,-24 266,-267 280,-276 15,9 36,33 50,47l241 242c33,34 72,58 143,55 54,-14 94,-35 119,-82 8,-14 15,-31 18,-49 17,-93 -44,-142 -81,-180 -19,-19 -257,-252 -266,-267 106,-26 194,-63 279,-111 46,-25 80,-46 98,-98 41,-113 -46,-220 -154,-217 -63,2 -91,34 -137,56 -210,97 -423,98 -630,-6 -43,-22 -81,-56 -143,-52 -119,6 -180,130 -138,226 22,49 55,67 101,93 82,48 175,84 277,109 -9,14 -251,252 -270,271 -39,38 -98,86 -79,182 29,150 186,164 292,57z"/></g></g></svg>